<svg xmlns="http://www.w3.org/2000/svg" width="24" height="24" viewBox="0 0 24 24">
    <path fill="#262626" fill-rule="evenodd" d="M12.314 3.832c-3.71-.09-7.043 2.37-8.015 6.001-1.158 4.32 1.409 8.764 5.728 9.922 3.63.972 7.427-.684 9.204-3.941.394-.72-.2-1.582-1.014-1.47-.72.1-1.46.054-2.18-.139-2.962-.793-4.72-3.84-3.927-6.803.193-.721.522-1.38.97-1.957.503-.648.054-1.593-.766-1.613zM10.45 6.064l-.07.18c-.076.21-.144.423-.202.64-1.08 4.03 1.313 8.174 5.342 9.253l.327.08c.109.024.219.046.329.065l.19.029-.066.065c-1.501 1.409-3.666 2.007-5.756 1.447-3.252-.872-5.185-4.22-4.314-7.472.56-2.09 2.16-3.666 4.13-4.262l.09-.025z"/>
</svg>
