<svg xmlns="http://www.w3.org/2000/svg" height="378.427" width="1052.893"><path d="M376.397 256.352H322.82v-27.807h53.577c10.174 0 14.922 5.426 14.922 13.564 0 8.139-4.07 14.243-14.922 14.243zm42.388-17.295c0-20.346-9.833-36.284-38.657-36.284h-84.775v122.415h27.467v-43.065h49.17c14.242 0 17.971 4.069 17.971 18.31v24.755h27.468v-29.161c0-14.548-5.16-23.08-16.621-25.984 11.923-4.03 17.977-15.56 17.977-30.986zm297.05 48.15c0 23.738-12.886 37.981-41.37 37.981h-82.74v-25.77h81.723c10.512 0 14.92-4.41 14.92-12.21 0-7.459-4.408-11.528-14.92-11.528H623.94c-29.503 0-38.997-18.65-38.997-36.623 0-17.972 9.494-36.284 38.997-36.284h80.705v25.772h-79.349c-8.816 0-12.885 3.73-12.885 10.851 0 6.783 4.069 10.512 12.885 10.512h49.17c28.483 0 41.369 15.599 41.369 37.3zm-179.722-84.434h27.467v122.415h-76.975c-35.266 0-45.1-9.833-45.1-45.101v-77.314h27.467v77.314c0 15.6 3.39 19.33 17.633 19.33h49.508zm0-93.59h-67.141V98.332c0-13.904 1.696-19.33 17.633-19.33h49.508zm-94.608-10.851v77.313h27.467v-41.03h67.141v41.03h27.467V53.232h-76.975c-34.588 0-45.1 9.495-45.1 45.1zm414.038 188.876c0 23.737-12.886 37.98-41.37 37.98h-76.636v-25.77h75.619c10.512 0 14.92-4.41 14.92-12.21 0-7.459-4.408-11.528-14.92-11.528h-46.117c-29.502 0-38.996-18.65-38.996-36.623 0-17.972 9.494-36.284 38.996-36.284h73.922v25.772h-72.566c-8.816 0-12.886 3.73-12.886 10.851 0 6.783 4.07 10.512 12.886 10.512h45.778c28.484 0 41.37 15.599 41.37 37.3zm197.356-233.976v122.413h-9.156c-16.955 0-24.076-4.068-36.623-19.668l-49.848-61.989v81.657h-26.45V53.232h9.157c16.954 0 24.076 4.068 36.621 19.667l49.848 61.99V53.232zm-27.468 175.313v30.18h-67.142v-10.851c0-13.903 1.696-19.329 17.634-19.329zm-49.508-25.772c-34.588 0-45.1 9.495-45.1 45.1v77.315h27.466v-41.03h67.142v41.03h27.468V202.773zm-97.999 0h27.467v122.415h-27.467zm0-149.541h27.467v122.413h-27.467zm-556.46 122.413h-26.11V53.232h9.494c9.835 0 15.599 2.035 23.737 9.833l27.807 26.79 27.805-26.79c8.139-7.798 13.903-9.833 23.738-9.833h9.494v122.413h-26.11V90.276l-34.927 32.47-34.928-32.47zm294.337-96.642h46.795c14.243 0 17.633 3.73 17.633 19.329v32.213c0 15.599-3.39 19.33-17.633 19.33h-46.795zm91.896 51.542V98.332c0-35.267-9.834-45.1-45.101-45.1h-74.261v122.413h74.261c35.267 0 45.101-10.172 45.101-45.1zM26.45 26.443h189.218v325.533H26.449zM0 378.425h242.116V-.007H0zm161.75-175.652h27.466v122.415H101.39c-35.266 0-48.49-13.224-48.49-48.49v-73.925h27.466v74.602c0 15.6 6.104 22.042 20.346 22.042h61.037zm566.631-72.228V98.332c0-35.267 9.834-45.1 45.1-45.1h62.394v25.77h-63.75c-14.242 0-16.277 2.374-16.277 17.973v4.069h66.803v25.432h-66.803v5.427c0 15.598 2.035 17.972 16.277 17.972h68.159v25.77h-66.803c-35.266 0-45.1-10.172-45.1-45.1zM148.185 106.81H80.366V79.003h67.82c10.173 0 14.92 5.425 14.92 13.564 0 8.138-4.069 14.242-14.92 14.242zm42.387-17.294c0-20.346-9.833-36.283-38.656-36.283H52.899v122.413h27.467V132.58h63.411c14.243 0 17.972 4.07 17.972 18.312v24.753h27.467v-29.162c0-14.546-5.16-23.079-16.621-25.982 11.924-4.03 17.977-15.56 17.977-30.986" fill="#231f20"/></svg>