<svg width="50" height="20" viewBox="0 0 50 20" fill="none" xmlns="http://www.w3.org/2000/svg">
<path d="M17.8743 13.0275H15.3301V11.6145H17.8743C18.3574 11.6145 18.5829 11.8902 18.5829 12.3037C18.5829 12.7173 18.3897 13.0275 17.8743 13.0275V13.0275ZM19.8873 12.1486C19.8873 11.1147 19.4203 10.3048 18.0515 10.3048H14.0257V16.5256H15.3301V14.3371H17.665C18.3414 14.3371 18.5185 14.5439 18.5185 15.2676V16.5256H19.8229V15.0437C19.8229 14.3044 19.5778 13.8708 19.0335 13.7232C19.5997 13.5185 19.8873 12.9325 19.8873 12.1486V12.1486ZM33.9935 14.5955C33.9935 15.8018 33.3816 16.5256 32.029 16.5256H28.0998V15.216H31.9807C32.4799 15.216 32.6892 14.9919 32.6892 14.5955C32.6892 14.2165 32.4799 14.0097 31.9807 14.0097H29.6296C28.2286 14.0097 27.7777 13.0619 27.7777 12.1486C27.7777 11.2354 28.2286 10.3048 29.6296 10.3048H33.4622V11.6145H29.694C29.2754 11.6145 29.0821 11.804 29.0821 12.1659C29.0821 12.5105 29.2754 12.7 29.694 12.7H32.029C33.3816 12.7 33.9935 13.4927 33.9935 14.5955V14.5955ZM25.4589 10.3048H26.7633V16.5256H23.1079C21.4331 16.5256 20.9662 16.0259 20.9662 14.2336V10.3048H22.2705V14.2336C22.2705 15.0264 22.4315 15.216 23.1079 15.216H25.4589V10.3048ZM25.4589 5.54875H22.2705V4.99734C22.2705 4.29078 22.3511 4.01508 23.1079 4.01508H25.4589V5.54875ZM20.9662 4.99734V8.92621H22.2705V6.84114H25.4589V8.92621H26.7633V2.70548H23.1079C21.4654 2.70548 20.9662 3.18797 20.9662 4.99734V4.99734ZM40.628 14.5955C40.628 15.8018 40.0161 16.5256 38.6634 16.5256H35.0241V15.216H38.6151C39.1143 15.216 39.3236 14.9919 39.3236 14.5955C39.3236 14.2165 39.1143 14.0097 38.6151 14.0097H36.4251C35.0241 14.0097 34.5733 13.0619 34.5733 12.1486C34.5733 11.2354 35.0241 10.3048 36.4251 10.3048H39.9355V11.6145H36.4895C36.0708 11.6145 35.8776 11.804 35.8776 12.1659C35.8776 12.5105 36.0708 12.7 36.4895 12.7H38.6634C40.0161 12.7 40.628 13.4927 40.628 14.5955V14.5955ZM50 2.70548V8.92621H49.5652C48.7601 8.92621 48.4219 8.71948 47.8261 7.92673L45.4589 4.77659V8.92621H44.2029V2.70548H44.6377C45.4428 2.70548 45.781 2.9122 46.3767 3.70489L48.7439 6.85509V2.70548H50ZM48.6956 11.6145V13.1481H45.5072V12.5967C45.5072 11.8902 45.5877 11.6145 46.3446 11.6145H48.6956ZM46.3446 10.3048C44.7021 10.3048 44.2029 10.7873 44.2029 12.5967V16.5256H45.5072V14.4405H48.6956V16.5256H50V10.3048H46.3446ZM41.6908 10.3048H42.9951V16.5256H41.6908V10.3048ZM41.6908 2.70548H42.9951V8.92621H41.6908V2.70548ZM15.2657 8.92621H14.0257V2.70548H14.4766C14.9436 2.70548 15.2174 2.80888 15.6038 3.20518L16.9243 4.56655L18.2447 3.20518C18.6312 2.80888 18.905 2.70548 19.372 2.70548H19.8229V8.92621H18.5829V4.58796L16.9243 6.23804L15.2657 4.58796V8.92621ZM29.2431 4.01508H31.4653C32.1417 4.01508 32.3027 4.20466 32.3027 4.99734V6.63434C32.3027 7.42703 32.1417 7.61661 31.4653 7.61661H29.2431V4.01508ZM33.6071 6.63434V4.99734C33.6071 3.20518 33.1401 2.70548 31.4653 2.70548H27.9388V8.92621H31.4653C33.1401 8.92621 33.6071 8.40929 33.6071 6.63434V6.63434ZM1.25603 1.34411H10.2416V17.8869H1.25603V1.34411ZM0 19.231H11.4976V2.61187e-05H0V19.231ZM7.68114 10.3048H8.98548V16.5256H4.81481C3.14009 16.5256 2.51209 15.8536 2.51209 14.0614V10.3048H3.81642V14.0958C3.81642 14.8886 4.10627 15.216 4.78261 15.216H7.68114V10.3048ZM34.5893 6.63434V4.99734C34.5893 3.20518 35.0563 2.70548 36.731 2.70548H39.694V4.01508H36.6666C35.9903 4.01508 35.8937 4.13569 35.8937 4.92837V5.13516H39.066V6.42755H35.8937V6.70332C35.8937 7.496 35.9903 7.61661 36.6666 7.61661H39.9034V8.92621H36.731C35.0563 8.92621 34.5893 8.40929 34.5893 6.63434V6.63434ZM7.03702 5.42814H3.81642V4.01508H7.03702C7.52013 4.01508 7.74554 4.29078 7.74554 4.70437C7.74554 5.11795 7.55236 5.42814 7.03702 5.42814V5.42814ZM9.04987 4.54927C9.04987 3.51537 8.58291 2.70548 7.21418 2.70548H2.51209V8.92621H3.81642V6.73774H6.82769C7.50405 6.73774 7.68114 6.94453 7.68114 7.66831V8.92621H8.98548V7.44424C8.98548 6.70508 8.74044 6.27144 8.19617 6.12393C8.76241 5.91911 9.04987 5.33321 9.04987 4.54927" fill="#838383"/>
</svg>
