<svg xmlns="http://www.w3.org/2000/svg" width="24" height="24" viewBox="0 0 24 24">
    <g fill="none" fill-rule="evenodd">
        <path fill="#F2F2F2" d="M12 8c2.21 0 4 1.79 4 4s-1.79 4-4 4-4-1.79-4-4 1.79-4 4-4zm0 2c-1.105 0-2 .895-2 2s.895 2 2 2 2-.895 2-2-.895-2-2-2zM11 2v2c0 .552.448 1 1 1s1-.448 1-1V2c0-.552-.448-1-1-1s-1 .448-1 1zm0 18v2c0 .552.448 1 1 1s1-.448 1-1v-2c0-.552-.448-1-1-1s-1 .448-1 1zM4.513 5.927l1.42 1.42c.391.391 1.024.391 1.414 0 .39-.391.391-1.024 0-1.414l-1.42-1.42c-.391-.391-1.024-.391-1.414 0-.39.391-.391 1.024 0 1.414zm12.14 12.14l1.42 1.42c.391.391 1.024.391 1.414 0 .39-.391.391-1.024 0-1.414l-1.42-1.42c-.391-.391-1.024-.391-1.414 0-.39.391-.391 1.024 0 1.414zM2 13h2c.552 0 1-.448 1-1s-.448-1-1-1H2c-.552 0-1 .448-1 1s.448 1 1 1zm18 0h2c.552 0 1-.448 1-1s-.448-1-1-1h-2c-.552 0-1 .448-1 1s.448 1 1 1zM5.927 19.487l1.42-1.42c.391-.391.391-1.024 0-1.414-.391-.39-1.024-.391-1.414 0l-1.42 1.42c-.391.391-.391 1.024 0 1.414.391.39 1.024.391 1.414 0zm12.14-12.14l1.42-1.42c.391-.391.391-1.024 0-1.414-.391-.39-1.024-.391-1.414 0l-1.42 1.42c-.391.391-.391 1.024 0 1.414.391.39 1.024.391 1.414 0z"/>
    </g>
</svg>
